<svg width="357" height="451" viewBox="0 0 357 451" fill="none" xmlns="http://www.w3.org/2000/svg">
<path fill-rule="evenodd" clip-rule="evenodd" d="M70.9711 1.45366C55.2851 4.89166 41.9732 11.8877 30.3292 22.8137C21.5022 31.0967 15.2281 39.9527 9.44315 52.2987C-3.16685 79.2087 -3.14885 103.986 9.50415 133.714C13.7011 143.575 20.4892 156.28 26.9922 166.445L30.5321 171.98L82.7522 171.962L134.971 171.945L144.894 145.817C150.351 131.447 155.777 118.574 156.95 117.21C159.551 114.185 163.884 113.948 166.616 116.681C167.985 118.049 171.836 130.973 179.517 159.97C185.539 182.706 190.595 201.438 190.754 201.596C190.912 201.755 195.751 195.392 201.506 187.457C208.468 177.859 213.026 172.519 215.122 171.505C217.828 170.195 225.992 169.98 272.898 169.98H327.522L331.508 163.73C336.852 155.351 345.61 138.21 349.264 128.98C357.502 108.17 359.122 89.4127 354.212 71.6947C350.378 57.8637 346.26 48.5197 339.501 38.3217C326.759 19.0977 307.781 6.12266 285.495 1.39766C275.634 -0.69334 258.624 -0.402339 248.471 2.03066C230.999 6.21666 211.478 18.0617 200.097 31.3847C193.271 39.3747 185.289 52.5307 181.929 61.3307C180.323 65.5377 178.751 68.9797 178.437 68.9797C178.122 68.9797 176.429 65.4687 174.675 61.1777C162.276 30.8527 137.878 9.08066 108.364 2.00566C98.4942 -0.36034 80.4631 -0.626338 70.9711 1.45366ZM159.613 146.98C159.005 148.355 155.586 157.128 152.014 166.475C148.443 175.822 144.749 184.035 143.805 184.725C142.482 185.692 130.552 185.98 91.7802 185.98C64.1102 185.98 41.4711 186.348 41.4711 186.799C41.4711 187.8 52.7111 201.827 64.8551 215.98C76.3571 229.385 113.093 266.147 129.971 281.141C148.332 297.453 176.751 320.945 178.144 320.964C180.783 321 219.625 288.072 245.105 264.2C269.569 241.28 301.814 206.046 314.29 188.601L317.609 183.961L269.42 184.22L221.23 184.48L207.821 202.98C191.144 225.989 191.151 225.98 188.157 225.98C182.52 225.98 182.008 224.706 171.068 183.48C162.065 149.555 160.574 144.805 159.613 146.98ZM56.7022 359.091C49.6162 360.272 45.5711 362.075 40.9901 366.098C31.0571 374.819 29.4291 392.869 37.7691 401.815C41.5951 405.921 49.1041 408.951 64.5781 412.636C82.1421 416.818 85.4711 418.777 85.4711 424.933C85.4711 432.14 76.8011 436.766 65.1461 435.776C55.9761 434.997 51.4662 431.618 49.0662 423.73C48.6112 422.235 47.2411 421.98 39.6521 421.98H30.7702L31.5421 426.867C34.0681 442.847 46.3251 450.98 67.8821 450.98C81.7981 450.98 89.0411 448.552 95.9921 441.558C99.1581 438.372 101.492 434.946 102.255 432.364C104.048 426.294 103.739 417.155 101.581 412.48C97.8321 404.358 92.7781 401.729 69.8731 395.987C61.2641 393.828 53.4021 391.322 52.4021 390.418C47.5661 386.041 49.6791 378.314 56.4531 375.604C67.7691 371.076 82.4711 376.629 82.4711 385.43C82.4711 386.715 84.0091 386.98 91.4711 386.98H100.471L100.449 383.73C100.42 379.478 97.5481 373.276 93.4431 368.6C86.0581 360.19 71.9812 356.547 56.7022 359.091ZM279.971 358.918C269.242 360.641 262.387 365.064 257.975 373.11C255.452 377.711 255.028 379.568 255.014 386.08C254.999 392.806 255.344 394.241 258.017 398.564C262.051 405.089 268.043 408.024 286.583 412.559C303.153 416.613 306.978 418.459 307.947 422.872C309.454 429.732 303.52 434.889 293.175 435.71C281.943 436.602 273.28 432.273 271.834 425.045L271.221 421.98H262.21H253.199L253.816 426.483C255.097 435.829 261.113 443.547 270.465 447.844C275.081 449.965 277.844 450.442 287.561 450.794C301.034 451.283 307.395 449.885 315.095 444.739C322.324 439.908 325.814 432.874 325.875 423.015C325.93 414.152 323.422 408.592 317.545 404.55C312.794 401.282 310.725 400.566 294.128 396.438C273.494 391.307 272.471 390.728 272.471 384.181C272.471 377.276 279.436 373.382 290.236 374.249C297.945 374.868 301.172 376.875 303.945 382.778L305.919 386.98H314.823H323.727L323.072 382.888C321.573 373.512 314.084 364.475 304.993 361.074C298.822 358.765 287.173 357.761 279.971 358.918ZM117.471 404.98V448.98H126.971H136.471V404.98V360.98H126.971H117.471V404.98ZM153.471 404.98V448.98H162.458H171.445L171.708 413.73L171.971 378.48L178.791 409.98C182.541 427.305 186.051 443.184 186.589 445.267L187.568 449.054L196.705 448.767L205.842 448.48L214.08 411.98L222.319 375.48L222.395 412.23L222.471 448.98H230.971H239.471V404.98V360.98H225.971C218.546 360.98 212.471 361.126 212.471 361.304C212.471 361.74 197.512 428.248 197.167 429.343C197.018 429.817 193.344 414.63 189.004 395.593L181.112 360.98H167.292H153.471V404.98Z" fill="#77DD77"/>
</svg>
